<?xml version="1.0" encoding="UTF-8" standalone="no"?>
<svg xmlns="http://www.w3.org/2000/svg" version="1.1"
 width="1080" height="1080" viewBox="0 0 1080 1080" preserveAspectRatio="xMidYMid meet">
<title>Mary Cake — logo vetorizado (cupcake + assinatura)</title>
<g id="mary-cake-logo" fill-rule="evenodd">
<path id="cupcake" fill="#d59c4b" stroke="none" d="M 638.0,382.0 L 635.0,383.0 L 617.0,413.0 L 593.0,470.0 L 577.0,475.0 L 528.0,477.0 L 483.0,469.0 L 458.0,406.0 L 455.0,403.0 L 456.0,416.0 L 474.0,478.0 L 500.0,485.0 L 528.0,488.0 L 577.0,487.0 L 601.0,482.0 Z M 418.0,339.0 L 420.0,355.0 L 425.0,364.0 L 436.0,375.0 L 455.0,385.0 L 486.0,392.0 L 522.0,390.0 L 544.0,385.0 L 614.0,359.0 L 633.0,355.0 L 645.0,356.0 L 654.0,362.0 L 658.0,370.0 L 661.0,368.0 L 659.0,355.0 L 653.0,347.0 L 641.0,342.0 L 616.0,344.0 L 529.0,377.0 L 498.0,382.0 L 468.0,379.0 L 446.0,368.0 L 438.0,360.0 L 433.0,350.0 L 432.0,339.0 L 435.0,328.0 L 444.0,317.0 L 454.0,311.0 L 453.0,309.0 L 438.0,312.0 L 429.0,318.0 L 423.0,325.0 Z M 644.0,324.0 L 641.0,315.0 L 633.0,306.0 L 624.0,301.0 L 607.0,299.0 L 595.0,301.0 L 582.0,306.0 L 534.0,335.0 L 504.0,349.0 L 488.0,353.0 L 470.0,353.0 L 457.0,348.0 L 453.0,349.0 L 462.0,356.0 L 475.0,361.0 L 494.0,362.0 L 513.0,358.0 L 528.0,352.0 L 557.0,337.0 L 583.0,321.0 L 600.0,314.0 L 623.0,314.0 L 631.0,318.0 L 642.0,332.0 L 644.0,331.0 Z M 627.0,283.0 L 623.0,275.0 L 608.0,263.0 L 597.0,260.0 L 576.0,262.0 L 577.0,247.0 L 572.0,233.0 L 564.0,225.0 L 554.0,220.0 L 554.0,212.0 L 546.0,196.0 L 536.0,189.0 L 527.0,187.0 L 525.0,190.0 L 538.0,200.0 L 546.0,218.0 L 527.0,224.0 L 518.0,236.0 L 517.0,246.0 L 520.0,248.0 L 524.0,238.0 L 534.0,230.0 L 548.0,230.0 L 554.0,233.0 L 563.0,245.0 L 561.0,261.0 L 550.0,275.0 L 511.0,308.0 L 490.0,320.0 L 469.0,324.0 L 475.0,327.0 L 488.0,327.0 L 506.0,321.0 L 561.0,283.0 L 578.0,275.0 L 602.0,273.0 L 614.0,278.0 L 625.0,288.0 L 627.0,288.0 Z" />
<path id="assinatura" fill="#f88874" stroke="none" d="M 238.0,630.0 L 355.0,513.0 L 422.0,498.0 L 411.0,598.0 L 281.0,799.0 L 280.0,846.0 L 311.0,859.0 L 378.0,786.0 L 459.0,563.0 L 507.0,529.0 L 534.0,536.0 L 484.0,706.0 L 499.0,719.0 L 607.0,560.0 L 687.0,506.0 L 688.0,542.0 L 618.0,703.0 L 538.0,763.0 L 529.0,829.0 L 552.0,841.0 L 540.0,785.0 L 611.0,721.0 L 609.0,767.0 L 632.0,774.0 L 634.0,878.0 L 668.0,908.0 L 712.0,909.0 L 779.0,861.0 L 836.0,761.0 L 740.0,882.0 L 686.0,897.0 L 656.0,875.0 L 650.0,798.0 L 695.0,695.0 L 796.0,661.0 L 842.0,600.0 L 827.0,572.0 L 781.0,577.0 L 648.0,692.0 L 714.0,536.0 L 694.0,492.0 L 628.0,523.0 L 532.0,642.0 L 557.0,563.0 L 551.0,521.0 L 507.0,516.0 L 450.0,556.0 L 449.0,493.0 L 395.0,480.0 L 315.0,532.0 Z M 662.0,700.0 L 663.0,702.0 L 661.0,705.0 L 661.0,707.0 L 659.0,709.0 L 653.0,721.0 L 653.0,723.0 L 647.0,734.0 L 647.0,736.0 L 643.0,743.0 L 643.0,745.0 L 641.0,749.0 L 630.0,760.0 L 626.0,761.0 L 625.0,760.0 L 626.0,749.0 L 628.0,745.0 L 628.0,741.0 L 630.0,737.0 L 630.0,734.0 L 631.0,733.0 L 631.0,731.0 L 639.0,709.0 L 642.0,706.0 L 644.0,706.0 L 648.0,704.0 L 651.0,704.0 Z M 404.0,625.0 L 405.0,628.0 L 386.0,697.0 L 367.0,750.0 L 348.0,793.0 L 325.0,831.0 L 310.0,845.0 L 305.0,847.0 L 298.0,846.0 L 293.0,842.0 L 289.0,833.0 L 289.0,815.0 L 292.0,801.0 L 303.0,772.0 L 328.0,726.0 L 372.0,662.0 Z M 826.0,589.0 L 828.0,594.0 L 828.0,602.0 L 826.0,610.0 L 820.0,622.0 L 815.0,629.0 L 797.0,646.0 L 778.0,658.0 L 762.0,665.0 L 721.0,677.0 L 711.0,679.0 L 707.0,678.0 L 708.0,674.0 L 716.0,662.0 L 736.0,636.0 L 759.0,612.0 L 773.0,600.0 L 792.0,588.0 L 806.0,583.0 L 812.0,582.0 L 819.0,583.0 Z" />
</g>
</svg>
